<svg width="40" height="40" viewBox="0 0 40 40" fill="none" xmlns="http://www.w3.org/2000/svg">
<path d="M20 40C19.8203 40 19.6406 39.9588 19.4759 39.8764L0.647734 30.4233C0.250625 30.2241 0 29.819 0 29.375C0 28.9309 0.250625 28.5258 0.647734 28.3267L10.1009 23.6392C10.4305 23.4744 10.8195 23.4744 11.1491 23.6392L20 28.0647L28.8509 23.6392C29.1805 23.4744 29.5695 23.4744 29.8991 23.6392L39.3523 28.3267C39.7494 28.5258 40 28.9309 40 29.375C40 29.819 39.7494 30.2241 39.3523 30.4233L20.5241 39.8764C20.3594 39.9588 20.1797 40 20 40Z" fill="url(#paint0_linear)"/>
<path d="M20 30.5469C19.8203 30.5469 19.6406 30.5057 19.4759 30.4233L0.647734 21.0483C0.250625 20.8491 0 20.444 0 20C0 19.5559 0.250625 19.1508 0.647734 18.9517L10.1009 14.2642C10.4305 14.0994 10.8195 14.0994 11.1491 14.2642L20 18.6897L28.8509 14.2642C29.1805 14.0994 29.5695 14.0994 29.8991 14.2642L39.3523 18.9517C39.7494 19.1508 40 19.5559 40 20C40 20.444 39.7494 20.8491 39.3523 21.0483L20.5241 30.4233C20.3594 30.5057 20.1797 30.5469 20 30.5469Z" fill="url(#paint1_linear)"/>
<path d="M20 21.1723C19.8203 21.1723 19.6406 21.1312 19.4759 21.0488L0.647734 11.6738C0.250625 11.4746 0 11.0695 0 10.6255C0 10.1814 0.250625 9.77633 0.647734 9.57719L19.4759 0.124062C19.8055 -0.0407031 20.1945 -0.0407031 20.5241 0.124062L39.3523 9.57719C39.7494 9.77633 40 10.1814 40 10.6255C40 11.0695 39.7494 11.4746 39.3523 11.6738L20.5241 21.0488C20.3594 21.1312 20.1797 21.1723 20 21.1723Z" fill="url(#paint2_linear)"/>
<defs>
<linearGradient id="paint0_linear" x1="2.00041" y1="39.1756" x2="11.8365" y2="15.3077" gradientUnits="userSpaceOnUse">
<stop stop-color="#FB6A2E"/>
<stop offset="1" stop-color="#FFF95B"/>
</linearGradient>
<linearGradient id="paint1_linear" x1="20" y1="30.5469" x2="20" y2="14.1406" gradientUnits="userSpaceOnUse">
<stop stop-color="#FFF887"/>
<stop offset="1" stop-color="#FFFEED"/>
</linearGradient>
<linearGradient id="paint2_linear" x1="2.00041" y1="20.1135" x2="16.8276" y2="-7.89964" gradientUnits="userSpaceOnUse">
<stop stop-color="#FB6A2E"/>
<stop offset="1" stop-color="#FFF95B"/>
</linearGradient>
</defs>
</svg>
