<svg width="40" height="40" viewBox="0 0 40 40" fill="none" xmlns="http://www.w3.org/2000/svg">
<path d="M8.78562 13.5701C8.42172 13.3606 7.97539 13.3653 7.61031 13.5747C6.57117 14.1835 5.14758 14.1835 4.10844 13.5747C3.74453 13.363 3.2982 13.3584 2.93312 13.5701C2.56805 13.7784 2.34375 14.1663 2.34375 14.5863V36.4692C2.34375 38.4078 3.92078 39.9849 5.85938 39.9849C7.79797 39.9849 9.375 38.4078 9.375 36.4692V14.5863C9.375 14.1663 9.1507 13.7784 8.78562 13.5701ZM24.7656 9.51611C19.9659 9.51611 15.3918 11.8221 12.5273 15.6856C12.3271 15.9569 12.2527 16.3013 12.3237 16.631C12.3946 16.9617 12.6052 17.2444 12.9004 17.408C15.1595 18.6634 16.5625 21.0277 16.5625 23.5786C16.5625 26.5403 14.6902 29.1954 11.9048 30.1853C11.5843 30.2997 11.3291 30.5469 11.2055 30.8639C11.082 31.181 11.1026 31.5368 11.2616 31.8378C13.9177 36.8629 19.0928 39.9849 24.7656 39.9849C33.1656 39.9849 40 33.1505 40 24.7505C40 16.3505 33.1656 9.51611 24.7656 9.51611Z" fill="url(#paint0_linear)"/>
<path d="M4.89461 0.491895C4.0775 1.67635 0 7.73025 0 10.5318C0 12.6363 1.09406 14.5304 2.92281 15.5981C3.80977 16.1165 4.82484 16.3912 5.85938 16.3912C6.89391 16.3912 7.90898 16.1165 8.79367 15.5981C10.6247 14.5303 11.7188 12.6363 11.7188 10.5318C11.7188 7.73025 7.64125 1.67635 6.82414 0.491895C6.38695 -0.144434 5.3318 -0.144434 4.89461 0.491895V0.491895ZM24.7656 28.2662C22.827 28.2662 21.25 29.8432 21.25 31.7818C21.25 33.7204 22.827 35.2974 24.7656 35.2974C26.7042 35.2974 28.2812 33.7204 28.2812 31.7818C28.2812 29.8432 26.7042 28.2662 24.7656 28.2662ZM31.7969 21.2349C29.8583 21.2349 28.2812 22.812 28.2812 24.7506C28.2812 26.6892 29.8583 28.2662 31.7969 28.2662C33.7355 28.2662 35.3125 26.6892 35.3125 24.7506C35.3125 22.812 33.7355 21.2349 31.7969 21.2349ZM24.7656 21.2349C26.7042 21.2349 28.2812 19.6579 28.2812 17.7193C28.2812 15.7807 26.7042 14.2037 24.7656 14.2037C22.827 14.2037 21.25 15.7807 21.25 17.7193C21.25 19.6579 22.827 21.2349 24.7656 21.2349Z" fill="url(#paint1_linear)"/>
<defs>
<linearGradient id="paint0_linear" x1="4.22695" y1="38.4611" x2="29.4629" y2="7.27187" gradientUnits="userSpaceOnUse">
<stop stop-color="#FB6A2E"/>
<stop offset="1" stop-color="#FFF95B"/>
</linearGradient>
<linearGradient id="paint1_linear" x1="17.6563" y1="35.2974" x2="17.6563" y2="0.0146295" gradientUnits="userSpaceOnUse">
<stop stop-color="#FFE59A"/>
<stop offset="1" stop-color="#FFFFD5"/>
</linearGradient>
</defs>
</svg>
