<svg width="40" height="40" viewBox="0 0 40 40" fill="none" xmlns="http://www.w3.org/2000/svg">
<path d="M16.4062 7.10938H2.34375C1.0493 7.10938 0 6.06008 0 4.76562V1.17188C0 0.524687 0.524687 0 1.17188 0H17.5781C18.2253 0 18.75 0.524687 18.75 1.17188V4.76562C18.75 6.06008 17.7007 7.10938 16.4062 7.10938Z" fill="url(#paint0_linear)"/>
<path d="M37.6562 7.10938H23.5938C22.2993 7.10938 21.25 6.06008 21.25 4.76562V1.17188C21.25 0.524687 21.7747 0 22.4219 0H38.8281C39.4753 0 40 0.524687 40 1.17188V4.76562C40 6.06008 38.9507 7.10938 37.6562 7.10938Z" fill="url(#paint1_linear)"/>
<path d="M0 38.8281C0 39.4753 0.524687 40 1.17188 40H17.5781C18.2253 40 18.75 39.4753 18.75 38.8281V4.76562H0V38.8281ZM21.25 4.76562V38.8281C21.25 39.4753 21.7747 40 22.4219 40H38.8281C39.4753 40 40 39.4753 40 38.8281V4.76562H21.25Z" fill="url(#paint2_linear)"/>
<path d="M12.8906 28.2031H5.85938C5.21164 28.2031 4.6875 28.7273 4.6875 29.375V34.0625C4.6875 34.7102 5.21164 35.2344 5.85938 35.2344H12.8906C13.5384 35.2344 14.0625 34.7102 14.0625 34.0625V29.375C14.0625 28.7273 13.5384 28.2031 12.8906 28.2031ZM12.8906 18.8281H5.85938C5.21164 18.8281 4.6875 19.3523 4.6875 20V24.6875C4.6875 25.3352 5.21164 25.8594 5.85938 25.8594H12.8906C13.5384 25.8594 14.0625 25.3352 14.0625 24.6875V20C14.0625 19.3523 13.5384 18.8281 12.8906 18.8281ZM12.8906 9.45312H5.85938C5.21164 9.45312 4.6875 9.97727 4.6875 10.625V15.3125C4.6875 15.9602 5.21164 16.4844 5.85938 16.4844H12.8906C13.5384 16.4844 14.0625 15.9602 14.0625 15.3125V10.625C14.0625 9.97727 13.5384 9.45312 12.8906 9.45312ZM34.1406 28.2031H27.1094C26.4616 28.2031 25.9375 28.7273 25.9375 29.375V34.0625C25.9375 34.7102 26.4616 35.2344 27.1094 35.2344H34.1406C34.7884 35.2344 35.3125 34.7102 35.3125 34.0625V29.375C35.3125 28.7273 34.7884 28.2031 34.1406 28.2031ZM34.1406 18.8281H27.1094C26.4616 18.8281 25.9375 19.3523 25.9375 20V24.6875C25.9375 25.3352 26.4616 25.8594 27.1094 25.8594H34.1406C34.7884 25.8594 35.3125 25.3352 35.3125 24.6875V20C35.3125 19.3523 34.7884 18.8281 34.1406 18.8281ZM34.1406 9.45312H27.1094C26.4616 9.45312 25.9375 9.97727 25.9375 10.625V15.3125C25.9375 15.9602 26.4616 16.4844 27.1094 16.4844H34.1406C34.7884 16.4844 35.3125 15.9602 35.3125 15.3125V10.625C35.3125 9.97727 34.7884 9.45312 34.1406 9.45312Z" fill="url(#paint3_linear)"/>
<defs>
<linearGradient id="paint0_linear" x1="0.937693" y1="6.75383" x2="4.92967" y2="-3.77449" gradientUnits="userSpaceOnUse">
<stop stop-color="#FB6A2E"/>
<stop offset="1" stop-color="#FFF95B"/>
</linearGradient>
<linearGradient id="paint1_linear" x1="22.1877" y1="6.75383" x2="26.1797" y2="-3.77449" gradientUnits="userSpaceOnUse">
<stop stop-color="#FB6A2E"/>
<stop offset="1" stop-color="#FFF95B"/>
</linearGradient>
<linearGradient id="paint2_linear" x1="20" y1="40" x2="20" y2="4.76562" gradientUnits="userSpaceOnUse">
<stop stop-color="#FFF95B" stop-opacity="0.1"/>
<stop offset="1" stop-color="#FFFEED"/>
</linearGradient>
<linearGradient id="paint3_linear" x1="6.21907" y1="33.945" x2="27.7337" y2="8.38818" gradientUnits="userSpaceOnUse">
<stop stop-color="#FB6A2E"/>
<stop offset="1" stop-color="#FFF95B"/>
</linearGradient>
</defs>
</svg>
