<svg width="40" height="40" viewBox="0 0 40 40" fill="none" xmlns="http://www.w3.org/2000/svg">
<path d="M20 32.8906C9.16699 32.8906 0.576758 21.181 0.219727 20.682C-0.0732422 20.2746 -0.0732422 19.7253 0.219727 19.3179C0.576758 18.819 9.16699 7.10938 20 7.10938C30.8329 7.10938 39.4232 18.819 39.7803 19.318C40.0732 19.7254 40.0732 20.2747 39.7803 20.6821C39.4232 21.181 30.8329 32.8906 20 32.8906Z" fill="url(#paint0_linear)"/>
<path d="M20 28.2031C15.4773 28.2031 11.7969 24.5227 11.7969 20C11.7969 15.4773 15.4773 11.7969 20 11.7969C24.5227 11.7969 28.2031 15.4773 28.2031 20C28.2031 24.5227 24.5227 28.2031 20 28.2031Z" fill="url(#paint1_linear)"/>
<path d="M20 23.5156C18.0614 23.5156 16.4844 21.9386 16.4844 20C16.4844 18.0614 18.0614 16.4844 20 16.4844C21.9386 16.4844 23.5156 18.0614 23.5156 20C23.5156 21.9386 21.9386 23.5156 20 23.5156Z" fill="url(#paint2_linear)"/>
<path d="M20.0001 0C19.3523 0 18.8282 0.524141 18.8282 1.17188V3.51562C18.8282 4.16336 19.3523 4.6875 20.0001 4.6875C20.6478 4.6875 21.1719 4.16336 21.1719 3.51562V1.17188C21.1719 0.524141 20.6478 0 20.0001 0ZM20.0001 35.3125C19.3523 35.3125 18.8282 35.8366 18.8282 36.4844V38.8281C18.8282 39.4759 19.3523 40 20.0001 40C20.6478 40 21.1719 39.4759 21.1719 38.8281V36.4844C21.1719 35.8366 20.6478 35.3125 20.0001 35.3125ZM11.6401 3.17602C11.3151 2.61523 10.5953 2.42297 10.0391 2.74687C9.47834 3.07078 9.28607 3.78711 9.60998 4.34789L10.7819 6.37805C11.1094 6.94344 11.8283 7.1275 12.3829 6.80719C12.9436 6.48328 13.1359 5.76695 12.812 5.20617L11.6401 3.17602ZM29.2183 33.6219C28.8921 33.0611 28.1734 32.8677 27.6172 33.1927C27.0565 33.5166 26.8642 34.233 27.1881 34.7937L28.36 36.8239C28.6875 37.3893 29.4065 37.5734 29.961 37.253C30.5218 36.9291 30.714 36.2128 30.3901 35.652L29.2183 33.6219ZM27.6172 6.80727C28.1726 7.12805 28.8913 6.94258 29.2183 6.37812L30.3901 4.34797C30.714 3.78719 30.5218 3.07078 29.961 2.74695C29.4002 2.42312 28.6838 2.61531 28.36 3.17609L27.1881 5.20625C26.8642 5.76695 27.0565 6.48336 27.6172 6.80727ZM12.3829 33.1927C11.821 32.8677 11.1069 33.0611 10.7819 33.6219L9.60998 35.652C9.28607 36.2128 9.47834 36.9292 10.0391 37.253C10.5945 37.5738 11.3132 37.3884 11.6401 36.8239L12.812 34.7937C13.1359 34.233 12.9436 33.5166 12.3829 33.1927Z" fill="url(#paint3_linear)"/>
<defs>
<linearGradient id="paint0_linear" x1="2.00041" y1="31.6013" x2="21.8855" y2="0.749203" gradientUnits="userSpaceOnUse">
<stop stop-color="#FB6A2E"/>
<stop offset="1" stop-color="#FFF95B"/>
</linearGradient>
<linearGradient id="paint1_linear" x1="20" y1="28.2031" x2="20" y2="11.7969" gradientUnits="userSpaceOnUse">
<stop stop-color="#FFF887"/>
<stop offset="0.5028" stop-color="#EAF6FF"/>
<stop offset="1" stop-color="#EAF6FF"/>
</linearGradient>
<linearGradient id="paint2_linear" x1="16.836" y1="23.164" x2="22.7908" y2="17.2092" gradientUnits="userSpaceOnUse">
<stop stop-color="#FB6A2E"/>
<stop offset="1" stop-color="#FFF95B"/>
</linearGradient>
<linearGradient id="paint3_linear" x1="20.0001" y1="40" x2="20.0001" y2="0" gradientUnits="userSpaceOnUse">
<stop stop-color="#FFF887"/>
<stop offset="0.5028" stop-color="#FFF887"/>
<stop offset="1" stop-color="#FFF887"/>
</linearGradient>
</defs>
</svg>
