<svg width="40" height="38" viewBox="0 0 40 38" fill="none" xmlns="http://www.w3.org/2000/svg">
<path d="M38.2398 37.75H1.15412C0.516738 37.75 0 37.2253 0 36.5781V7.28125C0 5.9868 1.0334 4.9375 2.30824 4.9375H37.0857C38.3605 4.9375 39.3939 5.9868 39.3939 7.28125V36.5781C39.3939 37.2253 38.8772 37.75 38.2398 37.75Z" fill="url(#paint0_linear)"/>
<path d="M38.2398 0.25H16.2346L15.0644 1.1475L13.9264 0.25H11.6181L10.4564 1.19109L9.3099 0.25H7.00166L5.86377 1.13492L4.69342 0.25H1.15412C0.507736 0.25 0 0.765547 0 1.42188V7.28125H39.3939V1.42188C39.3939 0.765547 38.8862 0.25 38.2398 0.25ZM33.5464 11.9688H5.84754C5.20962 11.9688 4.69342 12.4929 4.69342 13.1406V20.1719C4.69342 20.8196 5.20962 21.3438 5.84754 21.3438H33.5464C34.1843 21.3438 34.7005 20.8196 34.7005 20.1719V13.1406C34.7005 12.4929 34.1843 11.9688 33.5464 11.9688ZM17.3887 23.6875H5.84754C5.20962 23.6875 4.69342 24.2116 4.69342 24.8594V31.8906C4.69342 32.5384 5.20962 33.0625 5.84754 33.0625H17.3887C18.0267 33.0625 18.5429 32.5384 18.5429 31.8906V24.8594C18.5429 24.2116 18.0267 23.6875 17.3887 23.6875ZM33.5464 23.6875H22.0052C21.3673 23.6875 20.8511 24.2116 20.8511 24.8594V31.8906C20.8511 32.5384 21.3673 33.0625 22.0052 33.0625H33.5464C34.1843 33.0625 34.7005 32.5384 34.7005 31.8906V24.8594C34.7005 24.2116 34.1843 23.6875 33.5464 23.6875Z" fill="url(#paint1_linear)"/>
<path d="M4.69336 3.76562C4.69336 4.4218 5.20109 4.9375 5.84748 4.9375C6.49386 4.9375 7.0016 4.4218 7.0016 3.76562V0.25H4.69336V3.76562ZM9.30984 3.76562C9.30984 4.4218 9.81757 4.9375 10.464 4.9375C11.1103 4.9375 11.6181 4.4218 11.6181 3.76562V0.25H9.30984V3.76562ZM13.9263 0.25V3.76562C13.9263 4.4218 14.434 4.9375 15.0804 4.9375C15.7268 4.9375 16.2346 4.4218 16.2346 3.76562V0.25H13.9263Z" fill="url(#paint2_linear)"/>
<defs>
<linearGradient id="paint0_linear" x1="19.697" y1="37.75" x2="19.697" y2="4.9375" gradientUnits="userSpaceOnUse">
<stop stop-color="#FFF95B"/>
<stop offset="0.5028" stop-color="white" stop-opacity="0"/>
<stop offset="0.5029" stop-color="#FFFEED" stop-opacity="0.0362698"/>
<stop offset="1" stop-color="#FFFEED"/>
</linearGradient>
<linearGradient id="paint1_linear" x1="1.9701" y1="31.4215" x2="29.3012" y2="-1.39175" gradientUnits="userSpaceOnUse">
<stop stop-color="#FB6A2E"/>
<stop offset="1" stop-color="#FFF95B"/>
</linearGradient>
<linearGradient id="paint2_linear" x1="10.464" y1="4.9375" x2="10.464" y2="0.25" gradientUnits="userSpaceOnUse">
<stop stop-color="#ADDCFF"/>
<stop offset="0.5028" stop-color="#EAF6FF"/>
<stop offset="1" stop-color="#EAF6FF"/>
</linearGradient>
</defs>
</svg>
